<?xml version="1.0" encoding="iso-8859-1"?>
<!-- Generator: Adobe Illustrator 19.0.0, SVG Export Plug-In . SVG Version: 6.00 Build 0)  -->
<svg version="1.1" id="Layer_1" xmlns="http://www.w3.org/2000/svg" xmlns:xlink="http://www.w3.org/1999/xlink" x="0px" y="0px"
	 viewBox="0 0 512.038 512.038" style="enable-background:new 0 0 512.038 512.038;" xml:space="preserve">
<g>
	<g>
		<path d="M486.42,281.619h-42.667V170.686h34.133v17.067c0,4.713,3.82,8.533,8.533,8.533s8.533-3.82,8.533-8.533v-17.143
			c9.986-0.567,17.622-9.122,17.055-19.108c-0.346-6.1-3.745-11.614-9.038-14.665L272.295,4.073
			c-10.287-5.394-22.579-5.338-32.817,0.15l-26.892,15.453c-2.743-11.502-13.009-19.628-24.833-19.657H68.287
			c-14.146,0.008-25.608,11.482-25.6,25.628c0.002,2.897,0.495,5.773,1.458,8.506H25.62c-14.138,0-25.6,11.461-25.6,25.6
			s11.461,25.6,25.6,25.6h72.933L9.07,136.84c-8.665,4.993-11.642,16.066-6.649,24.731c3.051,5.294,8.565,8.693,14.665,9.038v17.143
			c0,4.713,3.82,8.533,8.533,8.533s8.533-3.82,8.533-8.533v-17.067h34.133v110.933H25.62c-14.132,0.015-25.585,11.468-25.6,25.6
			v196.267c0,4.713,3.82,8.533,8.533,8.533s8.533-3.82,8.533-8.533v-59.733h17.067v42.667c0,4.713,3.82,8.533,8.533,8.533
			s8.533-3.82,8.533-8.533v-42.667h17.067v25.6c0,4.713,3.82,8.533,8.533,8.533s8.533-3.82,8.533-8.533v-25.6h341.333v25.6
			c0,4.713,3.82,8.533,8.533,8.533s8.533-3.82,8.533-8.533v-25.6h17.067v42.667c0,4.713,3.82,8.533,8.533,8.533
			s8.533-3.82,8.533-8.533v-42.667h17.067v59.733c0,4.713,3.82,8.533,8.533,8.533s8.533-3.82,8.533-8.533V307.219
			C512.005,293.087,500.552,281.635,486.42,281.619z M460.82,298.686v47.748l-17.067-4.669v-43.079H460.82z M25.62,68.286
			c-4.711-0.005-8.529-3.822-8.533-8.533c0.005-4.711,3.822-8.529,8.533-8.533h42.667c4.713,0,8.533-3.82,8.533-8.533
			s-3.82-8.533-8.533-8.533s-8.533-3.821-8.533-8.533s3.82-8.533,8.533-8.533h119.467c4.711,0.005,8.529,3.822,8.533,8.533v3.446
			l-8.775,5.088h-42.425c-4.713,0-8.533,3.82-8.533,8.533s3.82,8.533,8.533,8.533c2.689-0.004,5.221,1.267,6.825,3.425l-23.7,13.642
			H25.62z M18.029,153.619c-0.333,0-0.708,0-0.908-0.754c-0.225-0.842,0.208-1.092,0.467-1.237l117.167-67.412l31.575-18.175
			l27.733-15.958l0.005-0.004l0.02-0.009l15.017-8.704l0.012-0.01l38.596-22.182c5.083-2.764,11.207-2.822,16.341-0.154
			l230.4,132.604c0.469,0.208,0.682,0.757,0.474,1.226c-0.002,0.005-0.005,0.01-0.007,0.016c-0.2,0.754-0.575,0.754-0.908,0.754
			H18.029z M409.62,332.426v-33.74h17.067v38.409L409.62,332.426z M426.687,354.785v3.634H409.62v-8.304L426.687,354.785z
			 M409.62,281.619V170.686h17.067v110.933H409.62z M375.487,323.087v-15.868c0.005-4.711,3.822-8.529,8.533-8.533h8.533v29.071
			L375.487,323.087z M392.554,345.446v12.973h-17.067v-17.642L392.554,345.446z M384.02,281.619
			c-14.132,0.015-25.585,11.468-25.6,25.6v11.198l-20.208-5.529c2.078-7.4,3.135-15.05,3.142-22.736
			c0-47.128-38.205-85.333-85.333-85.333s-85.333,38.205-85.333,85.333c0.013,7.076,0.916,14.122,2.687,20.972l-19.754,5.627v-9.533
			c-0.015-14.132-11.468-25.585-25.6-25.6h-8.533V170.686h17.067v8.533c0,4.713,3.82,8.533,8.533,8.533s8.533-3.82,8.533-8.533
			v-8.533h17.067v17.067c0,4.713,3.82,8.533,8.533,8.533s8.533-3.82,8.533-8.533v-17.067h17.067v8.533
			c0,4.713,3.821,8.533,8.533,8.533c4.713,0,8.533-3.82,8.533-8.533v-8.533h25.6v8.533c0,4.713,3.82,8.533,8.533,8.533
			s8.533-3.82,8.533-8.533v-8.533h25.6v8.533c0,4.713,3.82,8.533,8.533,8.533s8.533-3.82,8.533-8.533v-8.533h17.067v17.067
			c0,4.713,3.821,8.533,8.533,8.533c4.713,0,8.533-3.82,8.533-8.533v-17.067h17.067v8.533c0,4.713,3.82,8.533,8.533,8.533
			s8.533-3.82,8.533-8.533v-8.533h17.067v110.933H384.02z M290.471,299.811c-2.568-0.757-5.232-1.136-7.909-1.125h-61.358
			c-2.724-0.003-5.435,0.366-8.058,1.096l-23.408,6.679c-1.322-5.335-1.988-10.812-1.983-16.308
			c0-37.703,30.564-68.267,68.267-68.267s68.267,30.564,68.267,68.267c0.01,6.165-0.823,12.302-2.475,18.242v0L290.471,299.811z
			 M217.737,316.219c1.129-0.314,2.295-0.471,3.467-0.467h61.358c1.084-0.004,2.162,0.152,3.2,0.463l39.25,10.754l0.017,0.002
			l33.391,9.136v22.312h-204.8v-23.916l32.808-9.346l0.018-0.009L217.737,316.219z M119.487,326.475v-27.79h8.533
			c4.711,0.005,8.529,3.822,8.533,8.533v14.395L119.487,326.475z M136.554,339.364v19.055h-17.067v-14.193L136.554,339.364z
			 M85.354,336.199v-37.513h17.067v32.652L85.354,336.199z M102.42,349.088v9.331H85.354v-4.469L102.42,349.088z M85.354,281.619
			V170.686h17.067v110.933H85.354z M51.22,298.686h17.067v42.375l-17.067,4.862V298.686z M17.087,307.219
			c0.005-4.711,3.822-8.529,8.533-8.533h8.533v52.098l-17.067,4.862V307.219z M494.954,426.686H17.087v-17.067h477.867V426.686z
			 M494.954,392.552H17.087v-17.067h477.867V392.552z M494.954,355.773l-17.067-4.669v-52.418h8.533
			c4.711,0.005,8.529,3.822,8.533,8.533V355.773z"/>
	</g>
</g>
<g>
	<g>
		<path d="M152.296,106.241c-2.578-3.945-7.866-5.053-11.811-2.475c-0.044,0.029-0.087,0.058-0.13,0.087l-25.6,17.067
			c-3.921,2.615-4.98,7.913-2.366,11.834c1.584,2.376,4.252,3.802,7.108,3.799c1.682,0.001,3.327-0.498,4.725-1.434l25.6-17.067
			C153.766,115.474,154.874,110.186,152.296,106.241z"/>
	</g>
</g>
<g>
	<g>
		<path d="M212.029,106.241c-2.578-3.945-7.866-5.053-11.811-2.475c-0.044,0.029-0.087,0.058-0.13,0.087l-25.6,17.067
			c-3.921,2.615-4.98,7.913-2.366,11.834c1.584,2.376,4.252,3.802,7.108,3.799c1.682,0.001,3.327-0.498,4.725-1.434l25.6-17.067
			C213.499,115.474,214.607,110.186,212.029,106.241z"/>
	</g>
</g>
<g>
	<g>
		<path d="M220.345,63.531c-2.616-3.846-7.831-4.889-11.724-2.345l-25.6,17.067c-3.921,2.615-4.98,7.913-2.366,11.834
			c1.584,2.376,4.252,3.802,7.108,3.799c1.682,0,3.327-0.498,4.725-1.434l25.6-17.067C221.984,72.735,222.995,67.428,220.345,63.531
			z"/>
	</g>
</g>
<g>
	<g>
		<path d="M397.425,121.011c-0.046-0.031-0.091-0.062-0.138-0.092l-25.6-17.067c-3.946-2.576-9.234-1.465-11.81,2.481
			c-2.541,3.892-1.499,9.103,2.343,11.718l25.6,17.067c3.896,2.652,9.204,1.644,11.856-2.252
			C402.328,128.971,401.32,123.663,397.425,121.011z"/>
	</g>
</g>
<g>
	<g>
		<path d="M337.686,121.007c-0.044-0.03-0.088-0.059-0.132-0.088l-25.6-17.067c-3.911-2.616-9.202-1.567-11.818,2.344
			c-0.005,0.008-0.01,0.015-0.015,0.023c-2.615,3.917-1.56,9.212,2.357,11.827c0.003,0.002,0.006,0.004,0.01,0.006l25.6,17.067
			c3.897,2.651,9.205,1.64,11.855-2.257C342.593,128.966,341.582,123.658,337.686,121.007z"/>
	</g>
</g>
<g>
	<g>
		<path d="M329.158,78.344c-0.046-0.031-0.091-0.062-0.138-0.092l-25.6-17.067c-3.946-2.576-9.234-1.465-11.81,2.481
			c-2.541,3.892-1.499,9.102,2.343,11.718l25.6,17.067c3.896,2.652,9.204,1.644,11.856-2.252S333.054,80.997,329.158,78.344z"/>
	</g>
</g>
<g>
</g>
<g>
</g>
<g>
</g>
<g>
</g>
<g>
</g>
<g>
</g>
<g>
</g>
<g>
</g>
<g>
</g>
<g>
</g>
<g>
</g>
<g>
</g>
<g>
</g>
<g>
</g>
<g>
</g>
</svg>
