<?xml version="1.0" encoding="iso-8859-1"?>
<!-- Generator: Adobe Illustrator 19.0.0, SVG Export Plug-In . SVG Version: 6.00 Build 0)  -->
<svg version="1.1" id="Layer_1" xmlns="http://www.w3.org/2000/svg" xmlns:xlink="http://www.w3.org/1999/xlink" x="0px" y="0px"
	 viewBox="0 0 512.005 512.005" style="enable-background:new 0 0 512.005 512.005;" xml:space="preserve">
<g>
	<g>
		<path d="M380.483,445.37l-93.867-68.267c-2.575-1.878-5.984-2.161-8.833-0.733l-46.608,23.305l-55.55-39.684
			c-3.258-2.323-7.692-2.072-10.667,0.604l-85.333,76.8c-3.502,3.153-3.786,8.548-0.633,12.05c3.153,3.502,8.548,3.786,12.05,0.633
			l80.242-72.217l54.158,38.688c2.572,1.837,5.948,2.102,8.775,0.688l46.558-23.279l89.675,65.212
			c3.811,2.771,9.146,1.927,11.917-1.883C385.137,453.475,384.294,448.14,380.483,445.37z"/>
	</g>
</g>
<g>
	<g>
		<path d="M222.892,17.069h-104.45c-6.613-0.024-12.929,2.745-17.392,7.625c-4.652,4.822-7.23,11.275-7.183,17.975
			c-0.005,2.902,0.468,5.785,1.4,8.533H27.65c-5.018,0.018-9.952,1.284-14.358,3.683c-1.698,0.996-3.292,2.158-4.758,3.471
			C3.17,62.993,0.061,69.713,0,76.802c0.602,14.688,12.959,26.129,27.65,25.6h123.9c7.044,0.097,13.867-2.457,19.117-7.154
			c5.364-4.636,8.472-11.356,8.533-18.446c0.001-2.918-0.536-5.81-1.583-8.533h45.275c6.613,0.024,12.929-2.745,17.392-7.625
			c4.652-4.822,7.23-11.275,7.183-17.975C247.728,28.822,236.738,17.373,222.892,17.069z M227.792,49.019
			c-1.242,1.401-3.028,2.196-4.9,2.183H151.55c-4.713,0-8.533,3.82-8.533,8.533s3.82,8.533,8.533,8.533
			c5.238-0.43,9.893,3.323,10.583,8.533c-0.068,2.257-1.129,4.369-2.9,5.771c-2.122,1.856-4.866,2.842-7.683,2.763H27.65
			c-5.238,0.43-9.893-3.323-10.583-8.533c0.063-2.24,1.109-4.338,2.859-5.737c0.544-0.485,1.127-0.925,1.742-1.317
			c1.844-0.972,3.898-1.48,5.983-1.479h90.792c4.713,0,8.533-3.82,8.533-8.533s-3.82-8.533-8.533-8.533
			c-4.393-0.358-7.712-4.131-7.508-8.533c-0.013-2.38,0.926-4.666,2.608-6.35c1.242-1.401,3.028-2.196,4.9-2.183h104.45
			c4.393,0.358,7.712,4.131,7.508,8.533C230.413,45.049,229.474,47.335,227.792,49.019z"/>
	</g>
</g>
<g>
	<g>
		<path d="M376.76,213.336h39.323c7.044,0.097,13.867-2.457,19.117-7.154c5.364-4.636,8.473-11.357,8.533-18.446
			c0.001-2.918-0.536-5.81-1.583-8.533h45.275c6.613,0.024,12.929-2.745,17.392-7.625c4.652-4.822,7.23-11.275,7.183-17.975
			c0.261-13.847-10.729-25.296-24.575-25.6h-104.45c-6.613-0.024-12.929,2.745-17.392,7.625c-4.652,4.822-7.23,11.275-7.183,17.975
			c-0.005,2.902,0.469,5.785,1.4,8.533h-12.296l-41.429-72.5c-0.082-0.144-0.225-0.222-0.315-0.36
			c-0.695-0.897-1.493-1.708-2.378-2.419c-0.141-0.095-0.218-0.242-0.366-0.33c-0.333-0.142-0.675-0.26-1.024-0.356
			c-0.533-0.251-1.091-0.445-1.665-0.579c-1.069-0.149-2.153-0.155-3.224-0.019c-0.56,0.124-1.105,0.305-1.628,0.541
			c-0.355,0.091-0.703,0.207-1.043,0.346c-0.148,0.084-0.228,0.23-0.369,0.322c-0.896,0.693-1.706,1.49-2.414,2.375
			c-0.093,0.139-0.241,0.216-0.326,0.361L176.648,283.037l-29.506-32.747c-0.272-0.232-0.56-0.445-0.86-0.638
			c-0.222-0.257-0.461-0.499-0.715-0.724c-0.188-0.127-0.406-0.14-0.599-0.25c-0.512-0.281-1.053-0.507-1.613-0.672
			c-2.044-0.735-4.304-0.572-6.222,0.448c-0.52,0.239-1.013,0.531-1.471,0.873c-0.18,0.138-0.4,0.184-0.571,0.339
			c-0.222,0.262-0.427,0.538-0.614,0.826c-0.267,0.23-0.519,0.477-0.753,0.741L1.458,447.498c-0.95,1.41-1.457,3.071-1.458,4.771
			v34.133c-0.001,4.712,3.817,8.532,8.529,8.533c0.002,0,0.003,0,0.004,0h494.933c4.712,0.001,8.532-3.817,8.533-8.529
			c0-0.001,0-0.003,0-0.004v-34.133c-0.002-1.485-0.39-2.944-1.125-4.233L376.76,213.336z M382.975,179.202
			c4.713,0,8.533-3.82,8.533-8.533s-3.82-8.533-8.533-8.533c-4.393-0.358-7.713-4.131-7.509-8.533
			c-0.013-2.38,0.926-4.666,2.608-6.35c1.242-1.4,3.028-2.196,4.9-2.183h104.45c4.393,0.358,7.712,4.131,7.508,8.533
			c0.013,2.38-0.926,4.666-2.608,6.35c-1.242,1.401-3.028,2.196-4.9,2.183h-71.342c-4.713,0-8.533,3.82-8.533,8.533
			s3.82,8.533,8.533,8.533c5.238-0.43,9.893,3.323,10.583,8.533c-0.068,2.257-1.129,4.37-2.9,5.771
			c-2.122,1.856-4.866,2.842-7.683,2.763h-49.075l-9.752-17.067H382.975z M298.533,110.833l61.009,106.767l-18.834,31.385
			l-35.1-49.142c-2.736-3.834-8.063-4.725-11.897-1.988c-0.384,0.274-0.745,0.58-1.078,0.913l-26.408,26.404l-17.833-29.726
			L298.533,110.833z M494.933,477.869H17.067v-22.992L141.771,269.83l25.76,28.59l-12.74,21.498
			c-2.402,4.055-1.063,9.289,2.992,11.692s9.289,1.063,11.692-2.992l69.027-116.483l18.715,31.191
			c2.423,4.04,7.663,5.351,11.703,2.928c0.6-0.36,1.153-0.792,1.647-1.286l27.008-27.008l36.817,51.533
			c1.599,2.245,4.186,3.577,6.942,3.575l0.341-0.009c2.873-0.113,5.496-1.667,6.975-4.133l20.602-34.336l125.682,219.944V477.869z"
			/>
	</g>
</g>
<g>
</g>
<g>
</g>
<g>
</g>
<g>
</g>
<g>
</g>
<g>
</g>
<g>
</g>
<g>
</g>
<g>
</g>
<g>
</g>
<g>
</g>
<g>
</g>
<g>
</g>
<g>
</g>
<g>
</g>
</svg>
