<?xml version="1.0" encoding="iso-8859-1"?>
<!-- Generator: Adobe Illustrator 19.0.0, SVG Export Plug-In . SVG Version: 6.00 Build 0)  -->
<svg version="1.1" id="Layer_1" xmlns="http://www.w3.org/2000/svg" xmlns:xlink="http://www.w3.org/1999/xlink" x="0px" y="0px"
	 viewBox="0 0 512 512" style="enable-background:new 0 0 512 512;" xml:space="preserve">
<g>
	<g>
		<path d="M503.467,448h-8.533v-17.067c0-4.713-3.82-8.533-8.533-8.533s-8.533,3.82-8.533,8.533V448h-4.883L296.217,149.334h21.1
			c-1.048,2.723-1.584,5.616-1.583,8.533c0.044,7.014,3.09,13.674,8.367,18.295c5.276,4.78,12.164,7.389,19.283,7.305h123.9
			c14.691,0.529,27.048-10.912,27.65-25.6c-0.028-5.163-1.699-10.183-4.77-14.333c28.287-27.142,29.214-72.077,2.072-100.363
			c-13.41-13.976-31.95-21.865-51.319-21.837c-12.544-0.089-24.875,3.245-35.667,9.642c-4.055,2.403-5.394,7.638-2.991,11.693
			c0.749,1.263,1.81,2.312,3.083,3.045c25.771,14.768,34.691,47.631,19.923,73.402c-2.816,4.915-6.391,9.353-10.593,13.152h-15.006
			c0.931-2.748,1.404-5.631,1.4-8.533c0.069-6.581-2.419-12.931-6.942-17.712c-4.487-5.02-10.901-7.889-17.633-7.888h-104.45
			c-1.914,0.027-3.818,0.288-5.668,0.777l-3.032-5.123c-0.075-0.126-0.202-0.193-0.282-0.313c-0.125-0.189-0.22-0.382-0.36-0.562
			c-0.38-0.465-0.809-0.887-1.28-1.26c-0.18-0.151-0.328-0.329-0.519-0.463c-0.14-0.099-0.277-0.191-0.422-0.281
			c-0.051-0.032-0.077-0.086-0.129-0.117c-0.143-0.084-0.305-0.082-0.451-0.157c-0.518-0.29-1.066-0.524-1.633-0.698
			c-0.206-0.057-0.416-0.053-0.626-0.094l-0.035-0.005c-0.294-0.061-0.592-0.105-0.891-0.133c-0.24-0.021-0.463-0.105-0.706-0.105
			H256c-0.244,0-0.469,0.084-0.709,0.105c-0.294,0.028-0.586,0.071-0.875,0.13l-0.073,0.011c-0.196,0.039-0.393,0.033-0.586,0.086
			c-0.581,0.176-1.142,0.414-1.673,0.71c-0.14,0.072-0.296,0.069-0.434,0.15c-0.049,0.03-0.074,0.081-0.123,0.111
			c-0.151,0.093-0.292,0.191-0.436,0.294c-0.173,0.122-0.308,0.285-0.473,0.421c-0.484,0.381-0.925,0.815-1.315,1.293
			c-0.141,0.181-0.237,0.374-0.363,0.565c-0.08,0.12-0.206,0.186-0.281,0.311L39.017,448h-4.883v-17.067
			c0-4.713-3.821-8.533-8.533-8.533s-8.533,3.82-8.533,8.533V448H8.533C3.82,448,0,451.821,0,456.534s3.82,8.533,8.533,8.533h8.533
			v25.6c0,4.713,3.82,8.533,8.533,8.533s8.533-3.82,8.533-8.533v-25.6h9.75c3.016,0.001,5.807-1.591,7.342-4.188l145.104-245.172
			l-76.181,177.757l-0.014,0.032L96.774,448h-2.908c-9.421,0.011-17.056,7.645-17.067,17.067v17.067
			c0.011,9.421,7.646,17.056,17.067,17.067h324.267c9.421-0.011,17.056-7.645,17.067-17.067v-17.067
			c-0.011-9.421-7.645-17.056-17.067-17.067h-2.908l-23.353-54.48l-0.034-0.08l-76.241-177.859l145.178,245.298
			c1.534,2.596,4.326,4.188,7.342,4.188h9.75v25.6c0,4.713,3.82,8.533,8.533,8.533s8.533-3.82,8.533-8.533v-25.6h8.533
			c4.713,0,8.533-3.82,8.533-8.533S508.18,448,503.467,448z M426.592,40.284L426.592,40.284
			c28.772-7.905,58.506,9.012,66.411,37.784c5.561,20.241-1.105,41.87-17.095,55.47c-0.316-0.095-0.645-0.13-0.963-0.215
			c-0.39-0.103-0.776-0.173-1.169-0.26c-2.129-0.502-4.306-0.769-6.493-0.796h-30.042C456.93,103.192,452.403,64.091,426.592,40.284
			z M376.492,115.2c1.991,0.013,3.873,0.907,5.142,2.442c1.553,1.644,2.402,3.83,2.367,6.092c0.204,4.402-3.116,8.175-7.508,8.533
			c-4.713,0-8.533,3.821-8.533,8.533c0,4.713,3.82,8.533,8.533,8.533h90.792c2.019,0.006,4.008,0.49,5.805,1.411
			c0.727,0.435,1.411,0.938,2.045,1.501c1.688,1.385,2.686,3.438,2.733,5.621c-0.69,5.21-5.345,8.964-10.583,8.533h0h-123.9
			c-2.893,0.068-5.702-0.974-7.85-2.913c-1.688-1.385-2.686-3.438-2.733-5.621c0.69-5.21,5.345-8.964,10.583-8.533
			c4.713,0,8.533-3.821,8.533-8.533c0-4.713-3.82-8.533-8.533-8.533h-57.268L276.015,115.2H376.492z M133.627,405.334h69.627
			L183.554,448h-68.212L133.627,405.334z M256.014,331.856L309.642,448H202.361L256.014,331.856z M418.133,465.067l0.009,17.067
			H93.867v-17.067H418.133z M396.658,448h-68.212l-19.701-42.667h69.624L396.658,448z M371.053,388.267h-70.188l-29.348-63.571
			c-0.149-0.322-0.397-0.562-0.563-0.871c-1.849-3.483-4.869-6.201-8.528-7.673c-8.41-3.412-18.023,0.321-21.926,8.515l-0.012,0.027
			l-0.005,0.007l-13.234,28.665l-16.115,34.902h-70.193l115.042-268.438L371.053,388.267z"/>
	</g>
</g>
<g>
	<g>
		<path d="M222.892,21.334h-104.45c-6.613-0.026-12.93,2.743-17.392,7.625c-4.652,4.822-7.23,11.275-7.183,17.975
			c-0.005,2.902,0.468,5.785,1.4,8.533H27.65c-5.017,0.018-9.952,1.284-14.358,3.683c-1.698,0.996-3.292,2.158-4.758,3.471
			C3.17,67.257,0.061,73.978,0,81.067c0.602,14.688,12.959,26.129,27.65,25.6h123.9c7.044,0.097,13.867-2.457,19.117-7.154
			c5.364-4.636,8.472-11.356,8.533-18.446c0.001-2.918-0.536-5.81-1.583-8.533h45.275c6.613,0.024,12.929-2.745,17.392-7.625
			c4.652-4.822,7.23-11.275,7.183-17.975C247.728,33.087,236.738,21.638,222.892,21.334z M227.792,53.284
			c-1.242,1.401-3.028,2.196-4.9,2.183H151.55c-4.713,0-8.533,3.82-8.533,8.533s3.82,8.533,8.533,8.533
			c5.238-0.43,9.893,3.323,10.583,8.533c-0.068,2.257-1.129,4.369-2.9,5.771c-2.122,1.856-4.866,2.842-7.683,2.763H27.65
			c-5.238,0.43-9.893-3.323-10.583-8.533c0.063-2.24,1.109-4.338,2.859-5.737c0.544-0.485,1.127-0.925,1.742-1.317
			c1.844-0.972,3.898-1.48,5.983-1.479h90.792c4.713,0,8.533-3.82,8.533-8.533s-3.82-8.533-8.533-8.533
			c-4.393-0.358-7.712-4.131-7.508-8.533c-0.012-2.381,0.927-4.669,2.608-6.354c1.243-1.399,3.029-2.194,4.9-2.179h104.45
			c4.393,0.358,7.712,4.131,7.508,8.533C230.413,49.314,229.474,51.6,227.792,53.284z"/>
	</g>
</g>
<g>
	<g>
		<path d="M358.4,29.867h-8.533v-8.533c0.001-4.712-3.817-8.532-8.529-8.533c-0.001,0-0.003,0-0.004,0
			c-4.712-0.001-8.532,3.817-8.533,8.529c0,0.001,0,0.003,0,0.004v8.533h-8.533c-4.713,0-8.533,3.82-8.533,8.533
			s3.82,8.533,8.533,8.533h8.533v8.533c0,4.713,3.821,8.533,8.533,8.533s8.533-3.82,8.533-8.533v-8.533h8.533
			c4.713,0,8.533-3.82,8.533-8.533S363.113,29.867,358.4,29.867z"/>
	</g>
</g>
<g>
	<g>
		<path d="M136.533,157.867H128v-8.533c0-4.713-3.82-8.533-8.533-8.533s-8.533,3.82-8.533,8.533v8.533H102.4
			c-4.713,0-8.533,3.82-8.533,8.533s3.82,8.533,8.533,8.533h8.533v8.533c-0.001,4.712,3.817,8.532,8.529,8.533
			c0.001,0,0.003,0,0.004,0c4.712,0.001,8.532-3.817,8.533-8.529c0-0.001,0-0.003,0-0.004v-8.533h8.533
			c4.713,0,8.533-3.82,8.533-8.533S141.246,157.867,136.533,157.867z"/>
	</g>
</g>
<g>
</g>
<g>
</g>
<g>
</g>
<g>
</g>
<g>
</g>
<g>
</g>
<g>
</g>
<g>
</g>
<g>
</g>
<g>
</g>
<g>
</g>
<g>
</g>
<g>
</g>
<g>
</g>
<g>
</g>
</svg>
