<?xml version="1.0" encoding="iso-8859-1"?>
<!-- Generator: Adobe Illustrator 19.0.0, SVG Export Plug-In . SVG Version: 6.00 Build 0)  -->
<svg version="1.1" id="Layer_1" xmlns="http://www.w3.org/2000/svg" xmlns:xlink="http://www.w3.org/1999/xlink" x="0px" y="0px"
	 viewBox="0 0 512 512" style="enable-background:new 0 0 512 512;" xml:space="preserve">
<g>
	<g>
		<path d="M486.4,0H213.333c-14.132,0.015-25.585,11.468-25.6,25.6v51.2H25.6C11.468,76.815,0.015,88.268,0,102.4v349.867
			c0.015,14.132,11.468,25.585,25.6,25.6h162.133v8.533c0.015,14.132,11.468,25.585,25.6,25.6H486.4
			c14.132-0.015,25.585-11.468,25.6-25.6v-59.733c0.001-4.712-3.817-8.532-8.529-8.533c-0.001,0-0.003,0-0.004,0
			c-9.426,0-17.067-7.641-17.067-17.067c0-9.426,7.641-17.067,17.067-17.067c4.712,0.001,8.532-3.817,8.533-8.529
			c0-0.001,0-0.003,0-0.004V25.6C511.985,11.468,500.532,0.015,486.4,0z M25.6,460.8c-4.711-0.005-8.529-3.823-8.533-8.533V102.4
			c0.005-4.711,3.822-8.529,8.533-8.533h247.467c4.711,0.005,8.529,3.822,8.533,8.533v349.867c-0.005,4.711-3.823,8.529-8.533,8.533
			H25.6z M247.467,494.933h-34.133c-4.711-0.005-8.529-3.822-8.533-8.533v-8.533h42.667V494.933z M494.933,368.013
			c-18.255,4.716-29.231,23.338-24.515,41.593c3.106,12.022,12.493,21.409,24.515,24.515V486.4
			c-0.005,4.711-3.822,8.529-8.533,8.533h-34.133V435.2c0-4.713-3.82-8.533-8.533-8.533s-8.533,3.82-8.533,8.533v59.733H264.533
			v-17.067h8.533c14.132-0.015,25.585-11.468,25.6-25.6V102.4c-0.015-14.132-11.468-25.585-25.6-25.6H204.8V25.6
			c0.005-4.711,3.823-8.529,8.533-8.533h34.133V51.2c0,4.713,3.82,8.533,8.533,8.533s8.533-3.82,8.533-8.533V17.067H435.2v349.867
			c0,4.713,3.82,8.533,8.533,8.533s8.533-3.82,8.533-8.533V17.067H486.4c4.711,0.005,8.529,3.822,8.533,8.533V368.013z"/>
	</g>
</g>
<g>
	<g>
		<path d="M435.25,392.484c-2.292-0.013-4.494,0.896-6.108,2.524c-1.561,1.634-2.445,3.799-2.475,6.059
			c0.018,0.571,0.074,1.14,0.167,1.704c0.096,0.535,0.27,1.053,0.517,1.538c0.184,0.545,0.442,1.062,0.767,1.538
			c0.317,0.446,0.659,0.873,1.025,1.279c3.365,3.3,8.752,3.3,12.117,0c0.341-0.429,0.683-0.854,1.025-1.279
			c0.321-0.477,0.579-0.994,0.767-1.538c0.247-0.483,0.419-1.002,0.508-1.538c0.1-0.563,0.158-1.133,0.175-1.704
			C443.761,396.354,439.963,392.511,435.25,392.484z"/>
	</g>
</g>
<g>
	<g>
		<path d="M407.125,395.008c-2.456-2.417-6.121-3.124-9.3-1.796c-2.141,0.78-3.828,2.467-4.608,4.608
			c-0.911,2.067-0.911,4.421,0,6.487c0.777,2.143,2.465,3.831,4.608,4.608c1.025,0.438,2.127,0.67,3.242,0.684
			c4.732-0.019,8.553-3.87,8.534-8.602C409.592,398.754,408.703,396.604,407.125,395.008z"/>
	</g>
</g>
<g>
	<g>
		<path d="M372.991,395.008c-2.471-2.386-6.118-3.09-9.3-1.796c-1.045,0.413-2.001,1.022-2.817,1.796
			c-3.319,3.346-3.297,8.749,0.049,12.068c3.346,3.319,8.749,3.297,12.068-0.049C376.291,403.7,376.291,398.335,372.991,395.008z"/>
	</g>
</g>
<g>
	<g>
		<path d="M338.895,395.044c-2.038-2.05-4.974-2.931-7.803-2.34c-0.534,0.091-1.051,0.263-1.533,0.508
			c-0.546,0.187-1.064,0.447-1.542,0.771l-1.275,1.025c-3.3,3.365-3.3,8.752,0,12.117c0.425,0.341,0.85,0.683,1.275,1.021
			c0.477,0.324,0.996,0.583,1.542,0.771c0.483,0.245,1,0.418,1.533,0.513c0.565,0.098,1.136,0.155,1.709,0.171
			c0.542-0.016,1.083-0.073,1.617-0.171c0.566-0.082,1.115-0.255,1.625-0.512c0.524-0.171,1.015-0.432,1.45-0.771
			c0.508-0.338,0.942-0.679,1.367-1.021C342.205,403.799,342.221,398.391,338.895,395.044z"/>
	</g>
</g>
<g>
	<g>
		<path d="M230.4,128H68.267c-4.713,0-8.533,3.82-8.533,8.533s3.82,8.533,8.533,8.533H230.4c4.713,0,8.533-3.82,8.533-8.533
			S235.113,128,230.4,128z"/>
	</g>
</g>
<g>
	<g>
		<path d="M230.404,409.6c-0.002,0-0.003,0-0.004,0H68.267c-4.713,0-8.533,3.82-8.533,8.533s3.82,8.533,8.533,8.533H230.4
			c4.712,0.001,8.532-3.817,8.533-8.529c0-0.001,0-0.003,0-0.004C238.935,413.422,235.116,409.601,230.404,409.6z"/>
	</g>
</g>
<g>
	<g>
		<path d="M230.4,162.133H68.267c-4.713,0-8.533,3.82-8.533,8.533s3.82,8.533,8.533,8.533H230.4c4.713,0,8.533-3.82,8.533-8.533
			S235.113,162.133,230.4,162.133z"/>
	</g>
</g>
<g>
	<g>
		<path d="M149.618,204.8c-8.73-0.014-17.414,1.248-25.779,3.746l-0.058,0.015c-47.42,14.1-74.431,63.972-60.331,111.392
			c11.3,38.002,46.237,64.056,85.884,64.046c49.485,0.079,89.664-39.973,89.742-89.458
			C239.154,245.058,199.102,204.879,149.618,204.8z M93.867,340.308v0.733c-25.763-30.495-21.926-76.101,8.569-101.864
			c0.708-0.598,1.427-1.182,2.158-1.753c-17.822,35.08-11.678,41.78-8.402,45.25c4.393,4.024,9.567,7.1,15.2,9.037
			c2.983,1.263,9.175,3.888,9.775,5.463c-0.008,1.114-0.316,2.205-0.892,3.158c-2.78,5.379-6.795,10.023-11.716,13.55
			C99.555,319.685,94.043,329.599,93.867,340.308z M110.933,355.821v-15.513c0-5.967,2.467-8.254,8.533-13.3
			c6.871-5.098,12.439-11.748,16.25-19.408c2.756-5.066,3.261-11.056,1.392-16.513c-3.992-7.446-10.888-12.907-19.05-15.088
			c-2.974-1.127-5.83-2.545-8.525-4.233c0.169-4.944,5.993-20.676,21.912-47.576c11.259-2.973,23.081-3.096,34.398-0.355h-0.001
			c-6.408,6.436-10.682,14.685-12.244,23.631c0.927,6.649,4.686,12.572,10.308,16.242c8.242,7.425,9.667,10.054,7.658,14.075
			c-10.867,21.729-9.233,51.858,12.35,62.65c4.854,1.9,9.035,5.196,12.017,9.471C171.919,370.194,137.528,372.589,110.933,355.821z
			 M207.756,337.205c-4.518-5.083-10.035-9.181-16.206-12.038c-11.592-5.796-11.792-25.6-4.717-39.75
			c8.283-16.563-4.592-28.158-11.5-34.388c-1.56-1.348-3.045-2.779-4.45-4.287c3.194-6.089,7.299-11.654,12.173-16.503
			c23.84,12.529,38.781,37.23,38.81,64.162C221.862,309.81,216.916,324.813,207.756,337.205z"/>
	</g>
</g>
<g>
	<g>
		<path d="M413.992,120.683l-38.525-23.115V68.267c0-4.713-3.82-8.533-8.533-8.533s-8.533,3.82-8.533,8.533v29.302l-38.525,23.115
			c-4.041,2.425-5.35,7.667-2.925,11.708c2.425,4.041,7.667,5.35,11.708,2.925L358.4,117.47v41.13l-14.566,14.566
			c-3.353,3.311-3.387,8.713-0.076,12.066c3.311,3.353,8.713,3.387,12.066,0.076c0.026-0.025,0.051-0.05,0.076-0.076l11.034-11.033
			l11.034,11.034c3.353,3.311,8.755,3.278,12.066-0.075c3.282-3.323,3.282-8.669,0-11.992L375.467,158.6v-41.13l29.742,17.846
			c4.041,2.425,9.283,1.116,11.708-2.925C419.342,128.351,418.033,123.109,413.992,120.683z"/>
	</g>
</g>
<g>
	<g>
		<path d="M366.938,196.267c-0.001,0-0.003,0-0.004,0c-4.712-0.001-8.532,3.817-8.533,8.529c0,0.001,0,0.003,0,0.004v162.133
			c0,4.713,3.82,8.533,8.533,8.533s8.533-3.82,8.533-8.533V204.8C375.468,200.088,371.649,196.268,366.938,196.267z"/>
	</g>
</g>
<g>
	<g>
		<path d="M332.804,196.267c-0.001,0-0.003,0-0.004,0c-4.712-0.001-8.532,3.817-8.533,8.529c0,0.001,0,0.003,0,0.004v162.133
			c0,4.713,3.821,8.533,8.533,8.533c4.713,0,8.533-3.82,8.533-8.533V204.8C341.335,200.088,337.516,196.268,332.804,196.267z"/>
	</g>
</g>
<g>
	<g>
		<path d="M401.071,196.267c-0.001,0-0.003,0-0.004,0c-4.712-0.001-8.532,3.817-8.533,8.529c0,0.001,0,0.003,0,0.004v162.133
			c0,4.713,3.821,8.533,8.533,8.533s8.533-3.82,8.533-8.533V204.8C409.601,200.088,405.783,196.268,401.071,196.267z"/>
	</g>
</g>
<g>
</g>
<g>
</g>
<g>
</g>
<g>
</g>
<g>
</g>
<g>
</g>
<g>
</g>
<g>
</g>
<g>
</g>
<g>
</g>
<g>
</g>
<g>
</g>
<g>
</g>
<g>
</g>
<g>
</g>
</svg>
